<mxfile host="65bd71144e">
    <diagram id="x9onSTU0FbonHk61EIHc" name="Page-1">
        <mxGraphModel dx="1776" dy="688" grid="1" gridSize="10" guides="1" tooltips="1" connect="1" arrows="1" fold="1" page="1" pageScale="1" pageWidth="827" pageHeight="1169" background="#ffffff" math="0" shadow="0">
            <root>
                <mxCell id="0"/>
                <mxCell id="1" parent="0"/>
                <mxCell id="3" value="" style="rounded=0;whiteSpace=wrap;html=1;strokeColor=#36393d;fontSize=16;fillColor=#000000;strokeWidth=0;glass=0;sketch=1;curveFitting=1;jiggle=2;shadow=1;" vertex="1" parent="1">
                    <mxGeometry x="-191.5" y="8" width="950" height="470" as="geometry"/>
                </mxCell>
                <mxCell id="5" value="&lt;font size=&quot;1&quot; color=&quot;#2c2a2a&quot;&gt;&lt;b style=&quot;font-size: 16px;&quot;&gt;Home&amp;nbsp; About&amp;nbsp; Skils&amp;nbsp; Project&amp;nbsp; Contact&lt;/b&gt;&lt;/font&gt;" style="shape=ext;double=1;rounded=1;whiteSpace=wrap;html=1;strokeColor=#36393d;fillColor=#eeeeee;align=center;" vertex="1" parent="1">
                    <mxGeometry x="35" y="20" width="460" height="40" as="geometry"/>
                </mxCell>
                <mxCell id="10" value="" style="edgeStyle=none;html=1;fontSize=16;fontColor=#121212;" edge="1" parent="1">
                    <mxGeometry relative="1" as="geometry">
                        <mxPoint x="273" y="170" as="sourcePoint"/>
                        <mxPoint x="273.5198512391603" y="169.80148760839802" as="targetPoint"/>
                        <Array as="points"/>
                    </mxGeometry>
                </mxCell>
                <mxCell id="12" value="" style="rounded=1;whiteSpace=wrap;html=1;strokeColor=#567284;fontSize=16;fillColor=#eeeeee;strokeWidth=5;" vertex="1" parent="1">
                    <mxGeometry x="154.5" y="70" width="261" height="320" as="geometry"/>
                </mxCell>
                <mxCell id="13" value="" style="ellipse;whiteSpace=wrap;html=1;aspect=fixed;strokeColor=#36393d;fontSize=16;fillColor=#cce5ff;" vertex="1" parent="1">
                    <mxGeometry x="243.5" y="80" width="80" height="80" as="geometry"/>
                </mxCell>
                <mxCell id="14" value="&lt;h3&gt;&lt;font color=&quot;#292929&quot;&gt;Frontend &lt;/font&gt;&lt;font color=&quot;#ff3399&quot;&gt;Web&lt;/font&gt;&lt;font color=&quot;#292929&quot;&gt; &lt;/font&gt;&lt;font color=&quot;#0000ff&quot;&gt;Devloper &lt;/font&gt;&lt;font color=&quot;#00000d&quot;&gt;|&lt;/font&gt;&lt;/h3&gt;" style="rounded=1;whiteSpace=wrap;html=1;strokeColor=#36393d;fontSize=16;fillColor=#eeeeee;strokeWidth=0;" vertex="1" parent="1">
                    <mxGeometry x="170" y="180" width="230" height="40" as="geometry"/>
                </mxCell>
                <mxCell id="15" value="&lt;font style=&quot;font-size: 18px;&quot; color=&quot;#ffffff&quot;&gt;Resume&lt;/font&gt;" style="rounded=1;whiteSpace=wrap;html=1;strokeColor=#FFFFFF;strokeWidth=0;fontSize=16;fontColor=#00000D;fillColor=#1D1B1D;" vertex="1" parent="1">
                    <mxGeometry x="223.5" y="230" width="126.5" height="40" as="geometry"/>
                </mxCell>
                <mxCell id="17" value="&lt;h4&gt;&lt;font style=&quot;font-weight: normal;&quot; color=&quot;#191919&quot;&gt;My self &lt;/font&gt;&lt;font style=&quot;&quot; color=&quot;#191919&quot;&gt;Shuvajit Gayen&lt;/font&gt;&lt;/h4&gt;&lt;div style=&quot;font-size: 12px;&quot;&gt;&lt;font color=&quot;#191919&quot;&gt;Some thing about me&lt;/font&gt;&lt;/div&gt;" style="text;html=1;strokeColor=none;fillColor=none;spacing=5;spacingTop=-20;whiteSpace=wrap;overflow=hidden;rounded=0;strokeWidth=0;fontSize=18;fontColor=#FFFFFF;" vertex="1" parent="1">
                    <mxGeometry x="170" y="280" width="230" height="120" as="geometry"/>
                </mxCell>
                <mxCell id="54" value="" style="rounded=0;whiteSpace=wrap;html=1;shadow=1;glass=1;strokeColor=#10739e;strokeWidth=1;fontFamily=Helvetica;fontSize=16;fillColor=#b1ddf0;sketch=1;curveFitting=1;jiggle=2;" vertex="1" parent="1">
                    <mxGeometry x="-190" y="480" width="948.5" height="700" as="geometry"/>
                </mxCell>
                <mxCell id="55" value="&lt;font color=&quot;#000000&quot;&gt;&lt;u&gt;&lt;b&gt;About Me&lt;/b&gt;&lt;/u&gt;&lt;/font&gt;" style="text;html=1;strokeColor=none;fillColor=none;align=center;verticalAlign=middle;whiteSpace=wrap;rounded=0;shadow=0;glass=0;strokeWidth=5;fontFamily=Helvetica;fontSize=27;fontColor=#FFFFFF;" vertex="1" parent="1">
                    <mxGeometry x="182.5" y="510" width="156.5" height="30" as="geometry"/>
                </mxCell>
                <mxCell id="56" value="" style="edgeStyle=none;html=1;fontFamily=Helvetica;fontSize=16;fontColor=#333333;" edge="1" parent="1" source="58">
                    <mxGeometry relative="1" as="geometry">
                        <mxPoint x="91.75" y="845" as="targetPoint"/>
                    </mxGeometry>
                </mxCell>
                <mxCell id="57" value="" style="edgeStyle=none;html=1;fontFamily=Helvetica;fontSize=16;fontColor=#333333;" edge="1" parent="1" source="58">
                    <mxGeometry relative="1" as="geometry">
                        <mxPoint x="91.75" y="845" as="targetPoint"/>
                    </mxGeometry>
                </mxCell>
                <mxCell id="58" value="&lt;span style=&quot;color: rgba(0, 0, 0, 0); font-family: monospace; font-size: 0px; text-align: start;&quot;&gt;%3CmxGraphModel%3E%3Croot%3E%3CmxCell%20id%3D%220%22%2F%3E%3CmxCell%20id%3D%221%22%20parent%3D%220%22%2F%3E%3CmxCell%20id%3D%222%22%20value%3D%22%26lt%3Bh1%20style%3D%26quot%3Bfont-size%3A%2018px%3B%26quot%3B%26gt%3BDevnagar%20Makashada%20dinda%20higher%20secondery%20Education%26lt%3B%2Fh1%26gt%3B%26lt%3Bdiv%20style%3D%26quot%3Bfont-size%3A%2016px%3B%26quot%3B%26gt%3B0000-0000%26lt%3B%2Fdiv%26gt%3B%26lt%3Bdiv%20style%3D%26quot%3Bfont-size%3A%2016px%3B%26quot%3B%26gt%3BZip-0000000%26lt%3B%2Fdiv%26gt%3B%26lt%3Bdiv%20style%3D%26quot%3Bfont-size%3A%2016px%3B%26quot%3B%26gt%3B%26lt%3Bbr%26gt%3B%26lt%3B%2Fdiv%26gt%3B%22%20style%3D%22text%3Bhtml%3D1%3BstrokeColor%3Dnone%3BfillColor%3Dnone%3Bspacing%3D5%3BspacingTop%3D-20%3BwhiteSpace%3Dwrap%3Boverflow%3Dhidden%3Brounded%3D0%3Bshadow%3D1%3Bglass%3D1%3BstrokeWidth%3D1%3BfontFamily%3DHelvetica%3BfontSize%3D20%3BfontColor%3D%23333333%3B%22%20vertex%3D%221%22%20parent%3D%221%22%3E%3CmxGeometry%20x%3D%22-190%22%20y%3D%22580%22%20width%3D%22530%22%20height%3D%22120%22%20as%3D%22geometry%22%2F%3E%3C%2FmxCell%3E%3C%2Froot%3E%3C%2FmxGraphModel%3E&lt;/span&gt;" style="rounded=0;whiteSpace=wrap;html=1;shadow=0;glass=0;strokeColor=#23445d;strokeWidth=1;fontFamily=Helvetica;fontSize=16;fillColor=#bac8d3;" vertex="1" parent="1">
                    <mxGeometry x="-186.5" y="585" width="556.5" height="180" as="geometry"/>
                </mxCell>
                <mxCell id="59" value="&lt;h1 style=&quot;font-size: 18px;&quot;&gt;Devnagar Makashada dinda higher secondery Education&lt;/h1&gt;&lt;div style=&quot;font-size: 16px;&quot;&gt;0000-0000&lt;/div&gt;&lt;div style=&quot;font-size: 16px;&quot;&gt;Zip-0000000&lt;/div&gt;&lt;div style=&quot;font-size: 16px;&quot;&gt;&lt;br&gt;&lt;/div&gt;" style="text;html=1;strokeColor=none;fillColor=none;spacing=5;spacingTop=-20;whiteSpace=wrap;overflow=hidden;rounded=0;shadow=0;glass=0;strokeWidth=1;fontFamily=Helvetica;fontSize=20;fontColor=#333333;" vertex="1" parent="1">
                    <mxGeometry x="-173.25" y="620" width="530" height="80" as="geometry"/>
                </mxCell>
                <mxCell id="60" value="&lt;h4&gt;&lt;span style=&quot;font-size: 20px;&quot;&gt;Secondery Education :&lt;/span&gt;&lt;/h4&gt;&lt;div&gt;&lt;span style=&quot;font-size: 20px; font-weight: 400;&quot;&gt;&lt;br&gt;&lt;/span&gt;&lt;/div&gt;" style="text;html=1;strokeColor=none;fillColor=none;align=left;verticalAlign=middle;whiteSpace=wrap;rounded=0;shadow=1;glass=1;strokeWidth=1;fontFamily=Helvetica;fontSize=27;fontColor=#333333;" vertex="1" parent="1">
                    <mxGeometry x="-180.5" y="600" width="225" height="35" as="geometry"/>
                </mxCell>
                <mxCell id="61" value="" style="rounded=0;whiteSpace=wrap;html=1;shadow=1;glass=1;strokeWidth=1;fontFamily=Helvetica;fontSize=16;fillColor=none;" vertex="1" parent="1">
                    <mxGeometry x="150" y="660" width="200" height="80" as="geometry"/>
                </mxCell>
                <mxCell id="62" value="&amp;lt;Image&amp;gt;&amp;lt;/Image&amp;gt;" style="text;html=1;strokeColor=none;fillColor=none;align=center;verticalAlign=middle;whiteSpace=wrap;rounded=0;shadow=1;glass=1;strokeWidth=1;fontFamily=Helvetica;fontSize=16;fontColor=#333333;" vertex="1" parent="1">
                    <mxGeometry x="176" y="685" width="136.5" height="30" as="geometry"/>
                </mxCell>
                <mxCell id="63" value="&lt;span style=&quot;color: rgba(0, 0, 0, 0); font-family: monospace; font-size: 0px; text-align: start;&quot;&gt;%3CmxGraphModel%3E%3Croot%3E%3CmxCell%20id%3D%220%22%2F%3E%3CmxCell%20id%3D%221%22%20parent%3D%220%22%2F%3E%3CmxCell%20id%3D%222%22%20value%3D%22%26lt%3Bh1%20style%3D%26quot%3Bfont-size%3A%2018px%3B%26quot%3B%26gt%3BDevnagar%20Makashada%20dinda%20higher%20secondery%20Education%26lt%3B%2Fh1%26gt%3B%26lt%3Bdiv%20style%3D%26quot%3Bfont-size%3A%2016px%3B%26quot%3B%26gt%3B0000-0000%26lt%3B%2Fdiv%26gt%3B%26lt%3Bdiv%20style%3D%26quot%3Bfont-size%3A%2016px%3B%26quot%3B%26gt%3BZip-0000000%26lt%3B%2Fdiv%26gt%3B%26lt%3Bdiv%20style%3D%26quot%3Bfont-size%3A%2016px%3B%26quot%3B%26gt%3B%26lt%3Bbr%26gt%3B%26lt%3B%2Fdiv%26gt%3B%22%20style%3D%22text%3Bhtml%3D1%3BstrokeColor%3Dnone%3BfillColor%3Dnone%3Bspacing%3D5%3BspacingTop%3D-20%3BwhiteSpace%3Dwrap%3Boverflow%3Dhidden%3Brounded%3D0%3Bshadow%3D1%3Bglass%3D1%3BstrokeWidth%3D1%3BfontFamily%3DHelvetica%3BfontSize%3D20%3BfontColor%3D%23333333%3B%22%20vertex%3D%221%22%20parent%3D%221%22%3E%3CmxGeometry%20x%3D%22-190%22%20y%3D%22580%22%20width%3D%22530%22%20height%3D%22120%22%20as%3D%22geometry%22%2F%3E%3C%2FmxCell%3E%3C%2Froot%3E%3C%2FmxGraphModel%3E&lt;/span&gt;" style="rounded=0;whiteSpace=wrap;html=1;shadow=0;glass=0;strokeColor=#0e8088;strokeWidth=1;fontFamily=Helvetica;fontSize=16;fillColor=#b0e3e6;" vertex="1" parent="1">
                    <mxGeometry x="-185.5" y="780" width="556.5" height="180" as="geometry"/>
                </mxCell>
                <mxCell id="64" value="&lt;h1 style=&quot;font-size: 18px;&quot;&gt;Devnagar Makashada dinda higher secondery Education&lt;/h1&gt;&lt;div style=&quot;font-size: 16px;&quot;&gt;0000-0000&lt;/div&gt;&lt;div style=&quot;font-size: 16px;&quot;&gt;Zip-0000000&lt;/div&gt;&lt;div style=&quot;font-size: 16px;&quot;&gt;&lt;br&gt;&lt;/div&gt;" style="text;html=1;strokeColor=none;fillColor=none;spacing=5;spacingTop=-20;whiteSpace=wrap;overflow=hidden;rounded=0;shadow=0;glass=0;strokeWidth=1;fontFamily=Helvetica;fontSize=20;fontColor=#333333;" vertex="1" parent="1">
                    <mxGeometry x="-173.25" y="815" width="530" height="80" as="geometry"/>
                </mxCell>
                <mxCell id="65" value="&lt;h4&gt;&lt;span style=&quot;font-size: 20px;&quot;&gt;Higher Secondery Education :&lt;/span&gt;&lt;/h4&gt;&lt;div&gt;&lt;span style=&quot;font-size: 20px; font-weight: 400;&quot;&gt;&lt;br&gt;&lt;/span&gt;&lt;/div&gt;" style="text;html=1;strokeColor=none;fillColor=none;align=left;verticalAlign=middle;whiteSpace=wrap;rounded=0;shadow=1;glass=1;strokeWidth=1;fontFamily=Helvetica;fontSize=27;fontColor=#333333;" vertex="1" parent="1">
                    <mxGeometry x="-180.5" y="795" width="330.5" height="35" as="geometry"/>
                </mxCell>
                <mxCell id="66" value="" style="rounded=0;whiteSpace=wrap;html=1;shadow=1;glass=1;strokeWidth=1;fontFamily=Helvetica;fontSize=16;fillColor=none;" vertex="1" parent="1">
                    <mxGeometry x="150" y="855" width="200" height="80" as="geometry"/>
                </mxCell>
                <mxCell id="67" value="&amp;lt;Image&amp;gt;&amp;lt;/Image&amp;gt;" style="text;html=1;strokeColor=none;fillColor=none;align=center;verticalAlign=middle;whiteSpace=wrap;rounded=0;shadow=1;glass=1;strokeWidth=1;fontFamily=Helvetica;fontSize=16;fontColor=#333333;" vertex="1" parent="1">
                    <mxGeometry x="176" y="880" width="136.5" height="30" as="geometry"/>
                </mxCell>
                <mxCell id="68" value="&lt;span style=&quot;color: rgba(0, 0, 0, 0); font-family: monospace; font-size: 0px; text-align: start;&quot;&gt;%3CmxGraphModel%3E%3Croot%3E%3CmxCell%20id%3D%220%22%2F%3E%3CmxCell%20id%3D%221%22%20parent%3D%220%22%2F%3E%3CmxCell%20id%3D%222%22%20value%3D%22%26lt%3Bh1%20style%3D%26quot%3Bfont-size%3A%2018px%3B%26quot%3B%26gt%3BDevnagar%20Makashada%20dinda%20higher%20secondery%20Education%26lt%3B%2Fh1%26gt%3B%26lt%3Bdiv%20style%3D%26quot%3Bfont-size%3A%2016px%3B%26quot%3B%26gt%3B0000-0000%26lt%3B%2Fdiv%26gt%3B%26lt%3Bdiv%20style%3D%26quot%3Bfont-size%3A%2016px%3B%26quot%3B%26gt%3BZip-0000000%26lt%3B%2Fdiv%26gt%3B%26lt%3Bdiv%20style%3D%26quot%3Bfont-size%3A%2016px%3B%26quot%3B%26gt%3B%26lt%3Bbr%26gt%3B%26lt%3B%2Fdiv%26gt%3B%22%20style%3D%22text%3Bhtml%3D1%3BstrokeColor%3Dnone%3BfillColor%3Dnone%3Bspacing%3D5%3BspacingTop%3D-20%3BwhiteSpace%3Dwrap%3Boverflow%3Dhidden%3Brounded%3D0%3Bshadow%3D1%3Bglass%3D1%3BstrokeWidth%3D1%3BfontFamily%3DHelvetica%3BfontSize%3D20%3BfontColor%3D%23333333%3B%22%20vertex%3D%221%22%20parent%3D%221%22%3E%3CmxGeometry%20x%3D%22-190%22%20y%3D%22580%22%20width%3D%22530%22%20height%3D%22120%22%20as%3D%22geometry%22%2F%3E%3C%2FmxCell%3E%3C%2Froot%3E%3C%2FmxGraphModel%3E&lt;/span&gt;" style="rounded=0;whiteSpace=wrap;html=1;shadow=0;glass=0;strokeColor=#56517e;strokeWidth=1;fontFamily=Helvetica;fontSize=16;fillColor=#d0cee2;" vertex="1" parent="1">
                    <mxGeometry x="-186.5" y="970" width="556.5" height="180" as="geometry"/>
                </mxCell>
                <mxCell id="69" value="&lt;h1 style=&quot;font-size: 18px;&quot;&gt;Devnagar Makashada dinda higher secondery Education&lt;/h1&gt;&lt;div style=&quot;font-size: 16px;&quot;&gt;0000-0000&lt;/div&gt;&lt;div style=&quot;font-size: 16px;&quot;&gt;Zip-0000000&lt;/div&gt;&lt;div style=&quot;font-size: 16px;&quot;&gt;&lt;br&gt;&lt;/div&gt;" style="text;html=1;strokeColor=none;fillColor=none;spacing=5;spacingTop=-20;whiteSpace=wrap;overflow=hidden;rounded=0;shadow=0;glass=0;strokeWidth=1;fontFamily=Helvetica;fontSize=20;fontColor=#333333;" vertex="1" parent="1">
                    <mxGeometry x="-173.25" y="1005" width="530" height="80" as="geometry"/>
                </mxCell>
                <mxCell id="70" value="&lt;h4&gt;&lt;span style=&quot;font-size: 20px;&quot;&gt;Gradution :&lt;/span&gt;&lt;/h4&gt;" style="text;html=1;strokeColor=none;fillColor=none;align=left;verticalAlign=middle;whiteSpace=wrap;rounded=0;shadow=1;glass=1;strokeWidth=1;fontFamily=Helvetica;fontSize=27;fontColor=#333333;" vertex="1" parent="1">
                    <mxGeometry x="-180.5" y="972" width="225" height="35" as="geometry"/>
                </mxCell>
                <mxCell id="71" value="" style="rounded=0;whiteSpace=wrap;html=1;shadow=1;glass=1;strokeWidth=1;fontFamily=Helvetica;fontSize=16;fillColor=none;" vertex="1" parent="1">
                    <mxGeometry x="150" y="1045" width="200" height="80" as="geometry"/>
                </mxCell>
                <mxCell id="72" value="&amp;lt;Image&amp;gt;&amp;lt;/Image&amp;gt;" style="text;html=1;strokeColor=none;fillColor=none;align=center;verticalAlign=middle;whiteSpace=wrap;rounded=0;shadow=1;glass=1;strokeWidth=1;fontFamily=Helvetica;fontSize=16;fontColor=#333333;" vertex="1" parent="1">
                    <mxGeometry x="176" y="1070" width="136.5" height="30" as="geometry"/>
                </mxCell>
                <mxCell id="74" value="" style="rounded=0;whiteSpace=wrap;html=1;shadow=1;glass=1;strokeColor=#6c8ebf;strokeWidth=1;fontFamily=Helvetica;fontSize=16;fillColor=#dae8fc;sketch=1;curveFitting=1;jiggle=2;gradientColor=#7ea6e0;" vertex="1" parent="1">
                    <mxGeometry x="-189.25" y="1180" width="948.5" height="700" as="geometry"/>
                </mxCell>
                <mxCell id="75" value="&lt;font style=&quot;font-size: 22px;&quot;&gt;&lt;b&gt;&lt;u&gt;Skils&lt;/u&gt;&lt;/b&gt;&lt;/font&gt;" style="rounded=1;whiteSpace=wrap;html=1;shadow=1;glass=1;strokeColor=#666666;strokeWidth=1;fontFamily=Helvetica;fontSize=16;fontColor=#333333;fillColor=#f5f5f5;" vertex="1" parent="1">
                    <mxGeometry x="201.25" y="1190" width="171" height="40" as="geometry"/>
                </mxCell>
            </root>
        </mxGraphModel>
    </diagram>
</mxfile>